<svg xmlns="http://www.w3.org/2000/svg" width="1200" height="630" viewBox="0 0 1200 630" role="img" aria-label="Ledgerline" data-layout="horizontal"><title>Ledgerline</title><metadata>Outlined text preserves font shaping. Full editable copy is in the campaign text files. Simplified small formats intentionally omit secondary text.</metadata><rect width="1200" height="630" fill="#111528"/><path d="M0 0H1200" stroke="#818CF8" stroke-width="3.7800000000000002"/><defs>
  <radialGradient id="bfA" cx="82%" cy="18%" r="75%"><stop offset="0%" stop-color="#818CF8" stop-opacity=".30"/><stop offset="55%" stop-color="#818CF8" stop-opacity=".08"/><stop offset="100%" stop-color="#818CF8" stop-opacity="0"/></radialGradient>
  <radialGradient id="bfB" cx="8%" cy="95%" r="80%"><stop offset="0%" stop-color="#818CF8" stop-opacity=".16"/><stop offset="60%" stop-color="#818CF8" stop-opacity=".04"/><stop offset="100%" stop-color="#818CF8" stop-opacity="0"/></radialGradient>
  <linearGradient id="bfS" x1="0" y1="0" x2="1" y2="1"><stop offset="0%" stop-color="#FFFFFF" stop-opacity=".05"/><stop offset="45%" stop-color="#FFFFFF" stop-opacity="0"/></linearGradient>
  <filter id="bfG" x="0" y="0" width="100%" height="100%"><feTurbulence type="fractalNoise" baseFrequency=".8" numOctaves="2" stitchTiles="stitch" result="n"/><feColorMatrix in="n" type="matrix" values="0 0 0 0 1  0 0 0 0 1  0 0 0 0 1  0 0 0 .04 0"/></filter>
 </defs><defs><radialGradient id="bfW1"><stop offset="0%" stop-color="#818CF8" stop-opacity=".26"/><stop offset="100%" stop-color="#818CF8" stop-opacity="0"/></radialGradient><radialGradient id="bfW2"><stop offset="0%" stop-color="#818CF8" stop-opacity=".14"/><stop offset="100%" stop-color="#818CF8" stop-opacity="0"/></radialGradient></defs><ellipse cx="1183.05" cy="63" rx="214.2" ry="277.2" fill="url(#bfW1)"/><ellipse cx="28.95" cy="598.5" rx="189" ry="252" fill="url(#bfW2)"/><rect x="24.57" y="24.57" width="1150.86" height="580.86" rx="22.5225" fill="none" stroke="#FFFFFF" stroke-opacity=".06" stroke-width="1.4"/><rect x="52.95" y="40.95" width="47.25" height="47.25" rx="12.285" fill="#818CF8"/><g fill="#000000" role="img" aria-label="L" data-text="L" data-box="71.12802,57.62547,10.89396,14.84406"><title>L</title><path d="M97 0L97 714L187 714L187 80L499 80L499 0Z" transform="translate(71.12802 72.46953) scale(0.02079 -0.02079)"/></g><g fill="#FFFFFF" role="img" aria-label="Ledgerline" data-text="Ledgerline" data-box="106.5,53.575,109.846,22"><title>Ledgerline</title><path d="M97 0L97 714L187 714L187 80L499 80L499 0Z" transform="translate(106.5 70.295) scale(0.022 -0.022)"/><path d="M292 546Q361 546 410.5 516Q460 486 486.5 431.5Q513 377 513 304L513 251L146 251Q148 160 192.5 112.5Q237 65 317 65Q368 65 407.5 74.5Q447 84 489 102L489 25Q448 7 408 -1.5Q368 -10 313 -10Q237 -10 178.5 21Q120 52 87.5 113.5Q55 175 55 264Q55 352 84.5 415Q114 478 167.5 512Q221 546 292 546ZM291 474Q228 474 191.5 433.5Q155 393 148 321L421 321Q420 389 389 431.5Q358 474 291 474Z" transform="translate(118.028 70.295) scale(0.022 -0.022)"/><path d="M275 -10Q175 -10 115 59.5Q55 129 55 267Q55 405 115.5 475.5Q176 546 276 546Q338 546 377.5 523Q417 500 442 467L448 467Q447 480 444.5 505.5Q442 531 442 546L442 760L530 760L530 0L459 0L446 72L442 72Q418 38 378 14Q338 -10 275 -10ZM289 63Q374 63 408.5 109.5Q443 156 443 250L443 266Q443 366 410 419.5Q377 473 288 473Q217 473 181.5 416.5Q146 360 146 265Q146 169 181.5 116Q217 63 289 63Z" transform="translate(130.436 70.295) scale(0.022 -0.022)"/><path d="M275 546Q328 546 370.5 526Q413 506 443 465L448 465L460 536L530 536L530 -9Q530 -124 471.5 -182Q413 -240 290 -240Q172 -240 97 -206L97 -125Q176 -167 295 -167Q364 -167 403.5 -126.5Q443 -86 443 -16L443 5Q443 17 444 39.5Q445 62 446 71L442 71Q388 -10 276 -10Q172 -10 113.5 63Q55 136 55 267Q55 395 113.5 470.5Q172 546 275 546ZM287 472Q220 472 183 418.5Q146 365 146 266Q146 167 182.5 114.5Q219 62 289 62Q370 62 407 105.5Q444 149 444 246L444 267Q444 377 406 424.5Q368 472 287 472Z" transform="translate(143.966 70.295) scale(0.022 -0.022)"/><path d="M292 546Q361 546 410.5 516Q460 486 486.5 431.5Q513 377 513 304L513 251L146 251Q148 160 192.5 112.5Q237 65 317 65Q368 65 407.5 74.5Q447 84 489 102L489 25Q448 7 408 -1.5Q368 -10 313 -10Q237 -10 178.5 21Q120 52 87.5 113.5Q55 175 55 264Q55 352 84.5 415Q114 478 167.5 512Q221 546 292 546ZM291 474Q228 474 191.5 433.5Q155 393 148 321L421 321Q420 389 389 431.5Q358 474 291 474Z" transform="translate(157.496 70.295) scale(0.022 -0.022)"/><path d="M335 546Q350 546 367.5 544.5Q385 543 398 540L387 459Q374 462 358.5 464Q343 466 329 466Q288 466 252 443.5Q216 421 194.5 380.5Q173 340 173 286L173 0L85 0L85 536L157 536L167 438L171 438Q197 482 238 514Q279 546 335 546Z" transform="translate(169.904 70.295) scale(0.022 -0.022)"/><path d="M173 0L85 0L85 760L173 760Z" transform="translate(178.99 70.295) scale(0.022 -0.022)"/><path d="M130 737Q150 737 165.5 723.5Q181 710 181 681Q181 653 165.5 639Q150 625 130 625Q108 625 93 639Q78 653 78 681Q78 710 93 723.5Q108 737 130 737ZM173 536L173 0L85 0L85 536Z" transform="translate(184.666 70.295) scale(0.022 -0.022)"/><path d="M343 546Q439 546 488 499.5Q537 453 537 349L537 0L450 0L450 343Q450 472 330 472Q241 472 207 422Q173 372 173 278L173 0L85 0L85 536L156 536L169 463L174 463Q200 505 246 525.5Q292 546 343 546Z" transform="translate(190.342 70.295) scale(0.022 -0.022)"/><path d="M292 546Q361 546 410.5 516Q460 486 486.5 431.5Q513 377 513 304L513 251L146 251Q148 160 192.5 112.5Q237 65 317 65Q368 65 407.5 74.5Q447 84 489 102L489 25Q448 7 408 -1.5Q368 -10 313 -10Q237 -10 178.5 21Q120 52 87.5 113.5Q55 175 55 264Q55 352 84.5 415Q114 478 167.5 512Q221 546 292 546ZM291 474Q228 474 191.5 433.5Q155 393 148 321L421 321Q420 389 389 431.5Q358 474 291 474Z" transform="translate(203.938 70.295) scale(0.022 -0.022)"/></g><rect x="687.528" y="103.32" width="459.522" height="490.55" rx="21.6" fill="#000000" fill-opacity=".24"/><rect x="687.528" y="94.5" width="459.522" height="490.55" rx="21.6" fill="#818CF8"/><g fill="#FFFFFF" role="img" aria-label="Close the" data-text="Close the books 3× faster" data-box="52.95,146.5275,360.303,63.91"><title>Close the</title><path d="M403 645Q288 645 222 568Q156 491 156 357Q156 224 217.5 146.5Q279 69 402 69Q449 69 491 77Q533 85 573 97L573 19Q533 4 490.5 -3Q448 -10 389 -10Q280 -10 207 35Q134 80 97.5 163Q61 246 61 358Q61 466 100.5 548.5Q140 631 217 677.5Q294 724 404 724Q517 724 601 682L565 606Q532 621 491.5 633Q451 645 403 645Z" transform="translate(52.95 209.6075) scale(0.083 -0.083)"/><path d="M173 0L85 0L85 760L173 760Z" transform="translate(105.406 209.6075) scale(0.083 -0.083)"/><path d="M551 269Q551 136 483.5 63Q416 -10 301 -10Q230 -10 174.5 22.5Q119 55 87 117.5Q55 180 55 269Q55 402 122 474Q189 546 304 546Q377 546 432.5 513.5Q488 481 519.5 419.5Q551 358 551 269ZM146 269Q146 174 183.5 118.5Q221 63 303 63Q384 63 422 118.5Q460 174 460 269Q460 364 422 418Q384 472 302 472Q220 472 183 418Q146 364 146 269Z" transform="translate(126.82 209.6075) scale(0.083 -0.083)"/><path d="M434 148Q434 70 376 30Q318 -10 220 -10Q164 -10 123.5 -1Q83 8 52 24L52 104Q84 88 129.5 74.5Q175 61 222 61Q289 61 319 82.5Q349 104 349 140Q349 160 338 176Q327 192 298.5 208Q270 224 217 244Q165 264 128 284Q91 304 71 332Q51 360 51 404Q51 472 106.5 509Q162 546 252 546Q301 546 343.5 536.5Q386 527 423 510L393 440Q359 454 322 464Q285 474 246 474Q192 474 163.5 456.5Q135 439 135 409Q135 387 148 371.5Q161 356 191.5 341.5Q222 327 273 307Q324 288 360 268Q396 248 415 219.5Q434 191 434 148Z" transform="translate(177.035 209.6075) scale(0.083 -0.083)"/><path d="M292 546Q361 546 410.5 516Q460 486 486.5 431.5Q513 377 513 304L513 251L146 251Q148 160 192.5 112.5Q237 65 317 65Q368 65 407.5 74.5Q447 84 489 102L489 25Q448 7 408 -1.5Q368 -10 313 -10Q237 -10 178.5 21Q120 52 87.5 113.5Q55 175 55 264Q55 352 84.5 415Q114 478 167.5 512Q221 546 292 546ZM291 474Q228 474 191.5 433.5Q155 393 148 321L421 321Q420 389 389 431.5Q358 474 291 474Z" transform="translate(216.792 209.6075) scale(0.083 -0.083)"/><path d="" transform="translate(263.604 209.6075) scale(0.083 -0.083)"/><path d="M264 62Q284 62 305 65.5Q326 69 339 73L339 6Q325 -1 299 -5.5Q273 -10 249 -10Q207 -10 171.5 4.5Q136 19 114 55Q92 91 92 156L92 468L16 468L16 510L93 545L128 659L180 659L180 536L335 536L335 468L180 468L180 158Q180 109 203.5 85.5Q227 62 264 62Z" transform="translate(285.184 209.6075) scale(0.083 -0.083)"/><path d="M173 537Q173 497 168 462L174 462Q200 503 244.5 524Q289 545 341 545Q439 545 488 498.5Q537 452 537 349L537 0L450 0L450 343Q450 472 330 472Q240 472 206.5 421.5Q173 371 173 277L173 0L85 0L85 760L173 760Z" transform="translate(315.147 209.6075) scale(0.083 -0.083)"/><path d="M292 546Q361 546 410.5 516Q460 486 486.5 431.5Q513 377 513 304L513 251L146 251Q148 160 192.5 112.5Q237 65 317 65Q368 65 407.5 74.5Q447 84 489 102L489 25Q448 7 408 -1.5Q368 -10 313 -10Q237 -10 178.5 21Q120 52 87.5 113.5Q55 175 55 264Q55 352 84.5 415Q114 478 167.5 512Q221 546 292 546ZM291 474Q228 474 191.5 433.5Q155 393 148 321L421 321Q420 389 389 431.5Q358 474 291 474Z" transform="translate(366.441 209.6075) scale(0.083 -0.083)"/></g><g fill="#FFFFFF" role="img" aria-label="books 3× faster" data-text="Close the books 3× faster" data-box="52.95,247.7875,599.592,64.325"><title>books 3× faster</title><path d="M173 575Q173 541 171.5 511.5Q170 482 168 465L173 465Q196 499 236 522Q276 545 339 545Q439 545 499.5 475.5Q560 406 560 268Q560 130 499 60Q438 -10 339 -10Q276 -10 236 13Q196 36 173 68L166 68L148 0L85 0L85 760L173 760ZM324 472Q239 472 206 423Q173 374 173 271L173 267Q173 168 205.5 115.5Q238 63 326 63Q398 63 433.5 116Q469 169 469 269Q469 472 324 472Z" transform="translate(52.95 311.2825) scale(0.083 -0.083)"/><path d="M551 269Q551 136 483.5 63Q416 -10 301 -10Q230 -10 174.5 22.5Q119 55 87 117.5Q55 180 55 269Q55 402 122 474Q189 546 304 546Q377 546 432.5 513.5Q488 481 519.5 419.5Q551 358 551 269ZM146 269Q146 174 183.5 118.5Q221 63 303 63Q384 63 422 118.5Q460 174 460 269Q460 364 422 418Q384 472 302 472Q220 472 183 418Q146 364 146 269Z" transform="translate(103.995 311.2825) scale(0.083 -0.083)"/><path d="M551 269Q551 136 483.5 63Q416 -10 301 -10Q230 -10 174.5 22.5Q119 55 87 117.5Q55 180 55 269Q55 402 122 474Q189 546 304 546Q377 546 432.5 513.5Q488 481 519.5 419.5Q551 358 551 269ZM146 269Q146 174 183.5 118.5Q221 63 303 63Q384 63 422 118.5Q460 174 460 269Q460 364 422 418Q384 472 302 472Q220 472 183 418Q146 364 146 269Z" transform="translate(154.21 311.2825) scale(0.083 -0.083)"/><path d="M172 363Q172 347 170.5 321Q169 295 168 276L172 276Q178 284 190 299Q202 314 214.5 329.5Q227 345 236 355L407 536L510 536L293 307L525 0L419 0L233 250L172 197L172 0L85 0L85 760L172 760Z" transform="translate(204.425 311.2825) scale(0.083 -0.083)"/><path d="M434 148Q434 70 376 30Q318 -10 220 -10Q164 -10 123.5 -1Q83 8 52 24L52 104Q84 88 129.5 74.5Q175 61 222 61Q289 61 319 82.5Q349 104 349 140Q349 160 338 176Q327 192 298.5 208Q270 224 217 244Q165 264 128 284Q91 304 71 332Q51 360 51 404Q51 472 106.5 509Q162 546 252 546Q301 546 343.5 536.5Q386 527 423 510L393 440Q359 454 322 464Q285 474 246 474Q192 474 163.5 456.5Q135 439 135 409Q135 387 148 371.5Q161 356 191.5 341.5Q222 327 273 307Q324 288 360 268Q396 248 415 219.5Q434 191 434 148Z" transform="translate(248.747 311.2825) scale(0.083 -0.083)"/><path d="" transform="translate(288.504 311.2825) scale(0.083 -0.083)"/><path d="M493 547Q493 475 453 432.5Q413 390 345 376L345 372Q431 362 473 318Q515 274 515 203Q515 141 486 92.5Q457 44 396.5 17Q336 -10 241 -10Q185 -10 137 -1.5Q89 7 45 29L45 111Q90 89 142 76.5Q194 64 242 64Q338 64 380.5 101.5Q423 139 423 205Q423 272 370.5 301.5Q318 331 223 331L154 331L154 406L224 406Q312 406 357.5 443Q403 480 403 541Q403 593 368 621.5Q333 650 273 650Q215 650 174 633Q133 616 93 590L49 650Q87 680 143.5 702Q200 724 272 724Q384 724 438.5 674Q493 624 493 547Z" transform="translate(310.084 311.2825) scale(0.083 -0.083)"/><path d="M456 574L506 523L336 353L505 183L455 132L284 301L117 132L65 183L234 353L64 522L116 574L285 403Z" transform="translate(357.56 311.2825) scale(0.083 -0.083)"/><path d="" transform="translate(405.036 311.2825) scale(0.083 -0.083)"/><path d="M332 468L197 468L197 0L109 0L109 468L15 468L15 509L109 539L109 570Q109 674 155 719.5Q201 765 283 765Q315 765 341.5 759.5Q368 754 387 747L364 678Q348 683 327 688Q306 693 284 693Q240 693 218.5 663.5Q197 634 197 571L197 536L332 536Z" transform="translate(426.616 311.2825) scale(0.083 -0.083)"/><path d="M288 545Q386 545 433 502Q480 459 480 365L480 0L416 0L399 76L395 76Q360 32 321.5 11Q283 -10 215 -10Q142 -10 94 28.5Q46 67 46 149Q46 229 109 272.5Q172 316 303 320L394 323L394 355Q394 422 365 448Q336 474 283 474Q241 474 203 461.5Q165 449 132 433L105 499Q140 518 188 531.5Q236 545 288 545ZM314 259Q214 255 175.5 227Q137 199 137 148Q137 103 164.5 82Q192 61 235 61Q303 61 348 98.5Q393 136 393 214L393 262Z" transform="translate(455.168 311.2825) scale(0.083 -0.083)"/><path d="M434 148Q434 70 376 30Q318 -10 220 -10Q164 -10 123.5 -1Q83 8 52 24L52 104Q84 88 129.5 74.5Q175 61 222 61Q289 61 319 82.5Q349 104 349 140Q349 160 338 176Q327 192 298.5 208Q270 224 217 244Q165 264 128 284Q91 304 71 332Q51 360 51 404Q51 472 106.5 509Q162 546 252 546Q301 546 343.5 536.5Q386 527 423 510L393 440Q359 454 322 464Q285 474 246 474Q192 474 163.5 456.5Q135 439 135 409Q135 387 148 371.5Q161 356 191.5 341.5Q222 327 273 307Q324 288 360 268Q396 248 415 219.5Q434 191 434 148Z" transform="translate(501.731 311.2825) scale(0.083 -0.083)"/><path d="M264 62Q284 62 305 65.5Q326 69 339 73L339 6Q325 -1 299 -5.5Q273 -10 249 -10Q207 -10 171.5 4.5Q136 19 114 55Q92 91 92 156L92 468L16 468L16 510L93 545L128 659L180 659L180 536L335 536L335 468L180 468L180 158Q180 109 203.5 85.5Q227 62 264 62Z" transform="translate(541.488 311.2825) scale(0.083 -0.083)"/><path d="M292 546Q361 546 410.5 516Q460 486 486.5 431.5Q513 377 513 304L513 251L146 251Q148 160 192.5 112.5Q237 65 317 65Q368 65 407.5 74.5Q447 84 489 102L489 25Q448 7 408 -1.5Q368 -10 313 -10Q237 -10 178.5 21Q120 52 87.5 113.5Q55 175 55 264Q55 352 84.5 415Q114 478 167.5 512Q221 546 292 546ZM291 474Q228 474 191.5 433.5Q155 393 148 321L421 321Q420 389 389 431.5Q358 474 291 474Z" transform="translate(571.451 311.2825) scale(0.083 -0.083)"/><path d="M335 546Q350 546 367.5 544.5Q385 543 398 540L387 459Q374 462 358.5 464Q343 466 329 466Q288 466 252 443.5Q216 421 194.5 380.5Q173 340 173 286L173 0L85 0L85 536L157 536L167 438L171 438Q197 482 238 514Q279 546 335 546Z" transform="translate(618.263 311.2825) scale(0.083 -0.083)"/></g><rect x="52.95" y="360.36" width="262.584" height="5.04" rx="2.52" fill="#818CF8"/><g fill="#FFFFFF" role="img" aria-label="Your team finishes the month before it ends." data-text="Your team finishes the month before it ends." data-box="52.95,380.771,460.658,17.138"><title>Your team finishes the month before it ends.</title><path d="M283 363L469 714L566 714L328 277L328 0L238 0L238 273L0 714L98 714Z" transform="translate(52.95 397.601) scale(0.022 -0.022)"/><path d="M551 269Q551 136 483.5 63Q416 -10 301 -10Q230 -10 174.5 22.5Q119 55 87 117.5Q55 180 55 269Q55 402 122 474Q189 546 304 546Q377 546 432.5 513.5Q488 481 519.5 419.5Q551 358 551 269ZM146 269Q146 174 183.5 118.5Q221 63 303 63Q384 63 422 118.5Q460 174 460 269Q460 364 422 418Q384 472 302 472Q220 472 183 418Q146 364 146 269Z" transform="translate(64.302 397.601) scale(0.022 -0.022)"/><path d="M533 536L533 0L461 0L448 71L444 71Q418 29 372 9.5Q326 -10 274 -10Q177 -10 128 36.5Q79 83 79 185L79 536L168 536L168 191Q168 63 287 63Q376 63 410.5 113Q445 163 445 257L445 536Z" transform="translate(77.612 397.601) scale(0.022 -0.022)"/><path d="M335 546Q350 546 367.5 544.5Q385 543 398 540L387 459Q374 462 358.5 464Q343 466 329 466Q288 466 252 443.5Q216 421 194.5 380.5Q173 340 173 286L173 0L85 0L85 536L157 536L167 438L171 438Q197 482 238 514Q279 546 335 546Z" transform="translate(91.208 397.601) scale(0.022 -0.022)"/><path d="" transform="translate(100.294 397.601) scale(0.022 -0.022)"/><path d="M264 62Q284 62 305 65.5Q326 69 339 73L339 6Q325 -1 299 -5.5Q273 -10 249 -10Q207 -10 171.5 4.5Q136 19 114 55Q92 91 92 156L92 468L16 468L16 510L93 545L128 659L180 659L180 536L335 536L335 468L180 468L180 158Q180 109 203.5 85.5Q227 62 264 62Z" transform="translate(106.014 397.601) scale(0.022 -0.022)"/><path d="M292 546Q361 546 410.5 516Q460 486 486.5 431.5Q513 377 513 304L513 251L146 251Q148 160 192.5 112.5Q237 65 317 65Q368 65 407.5 74.5Q447 84 489 102L489 25Q448 7 408 -1.5Q368 -10 313 -10Q237 -10 178.5 21Q120 52 87.5 113.5Q55 175 55 264Q55 352 84.5 415Q114 478 167.5 512Q221 546 292 546ZM291 474Q228 474 191.5 433.5Q155 393 148 321L421 321Q420 389 389 431.5Q358 474 291 474Z" transform="translate(113.956 397.601) scale(0.022 -0.022)"/><path d="M288 545Q386 545 433 502Q480 459 480 365L480 0L416 0L399 76L395 76Q360 32 321.5 11Q283 -10 215 -10Q142 -10 94 28.5Q46 67 46 149Q46 229 109 272.5Q172 316 303 320L394 323L394 355Q394 422 365 448Q336 474 283 474Q241 474 203 461.5Q165 449 132 433L105 499Q140 518 188 531.5Q236 545 288 545ZM314 259Q214 255 175.5 227Q137 199 137 148Q137 103 164.5 82Q192 61 235 61Q303 61 348 98.5Q393 136 393 214L393 262Z" transform="translate(126.364 397.601) scale(0.022 -0.022)"/><path d="M673 546Q764 546 809 499.5Q854 453 854 349L854 0L767 0L767 345Q767 472 658 472Q580 472 546.5 427Q513 382 513 296L513 0L426 0L426 345Q426 472 316 472Q235 472 204 422Q173 372 173 278L173 0L85 0L85 536L156 536L169 463L174 463Q199 505 241.5 525.5Q284 546 332 546Q458 546 496 456L501 456Q528 502 574.5 524Q621 546 673 546Z" transform="translate(138.706 397.601) scale(0.022 -0.022)"/><path d="" transform="translate(159.276 397.601) scale(0.022 -0.022)"/><path d="M332 468L197 468L197 0L109 0L109 468L15 468L15 509L109 539L109 570Q109 674 155 719.5Q201 765 283 765Q315 765 341.5 759.5Q368 754 387 747L364 678Q348 683 327 688Q306 693 284 693Q240 693 218.5 663.5Q197 634 197 571L197 536L332 536ZM474 737Q494 737 509.5 723.5Q525 710 525 681Q525 653 509.5 639Q494 625 474 625Q452 625 437 639Q422 653 422 681Q422 710 437 723.5Q452 737 474 737ZM517 536L517 0L429 0L429 536Z" transform="translate(164.996 397.601) scale(0.022 -0.022)"/><path d="M343 546Q439 546 488 499.5Q537 453 537 349L537 0L450 0L450 343Q450 472 330 472Q241 472 207 422Q173 372 173 278L173 0L85 0L85 536L156 536L169 463L174 463Q200 505 246 525.5Q292 546 343 546Z" transform="translate(178.24 397.601) scale(0.022 -0.022)"/><path d="M130 737Q150 737 165.5 723.5Q181 710 181 681Q181 653 165.5 639Q150 625 130 625Q108 625 93 639Q78 653 78 681Q78 710 93 723.5Q108 737 130 737ZM173 536L173 0L85 0L85 536Z" transform="translate(191.836 397.601) scale(0.022 -0.022)"/><path d="M434 148Q434 70 376 30Q318 -10 220 -10Q164 -10 123.5 -1Q83 8 52 24L52 104Q84 88 129.5 74.5Q175 61 222 61Q289 61 319 82.5Q349 104 349 140Q349 160 338 176Q327 192 298.5 208Q270 224 217 244Q165 264 128 284Q91 304 71 332Q51 360 51 404Q51 472 106.5 509Q162 546 252 546Q301 546 343.5 536.5Q386 527 423 510L393 440Q359 454 322 464Q285 474 246 474Q192 474 163.5 456.5Q135 439 135 409Q135 387 148 371.5Q161 356 191.5 341.5Q222 327 273 307Q324 288 360 268Q396 248 415 219.5Q434 191 434 148Z" transform="translate(197.512 397.601) scale(0.022 -0.022)"/><path d="M173 537Q173 497 168 462L174 462Q200 503 244.5 524Q289 545 341 545Q439 545 488 498.5Q537 452 537 349L537 0L450 0L450 343Q450 472 330 472Q240 472 206.5 421.5Q173 371 173 277L173 0L85 0L85 760L173 760Z" transform="translate(208.05 397.601) scale(0.022 -0.022)"/><path d="M292 546Q361 546 410.5 516Q460 486 486.5 431.5Q513 377 513 304L513 251L146 251Q148 160 192.5 112.5Q237 65 317 65Q368 65 407.5 74.5Q447 84 489 102L489 25Q448 7 408 -1.5Q368 -10 313 -10Q237 -10 178.5 21Q120 52 87.5 113.5Q55 175 55 264Q55 352 84.5 415Q114 478 167.5 512Q221 546 292 546ZM291 474Q228 474 191.5 433.5Q155 393 148 321L421 321Q420 389 389 431.5Q358 474 291 474Z" transform="translate(221.646 397.601) scale(0.022 -0.022)"/><path d="M434 148Q434 70 376 30Q318 -10 220 -10Q164 -10 123.5 -1Q83 8 52 24L52 104Q84 88 129.5 74.5Q175 61 222 61Q289 61 319 82.5Q349 104 349 140Q349 160 338 176Q327 192 298.5 208Q270 224 217 244Q165 264 128 284Q91 304 71 332Q51 360 51 404Q51 472 106.5 509Q162 546 252 546Q301 546 343.5 536.5Q386 527 423 510L393 440Q359 454 322 464Q285 474 246 474Q192 474 163.5 456.5Q135 439 135 409Q135 387 148 371.5Q161 356 191.5 341.5Q222 327 273 307Q324 288 360 268Q396 248 415 219.5Q434 191 434 148Z" transform="translate(234.054 397.601) scale(0.022 -0.022)"/><path d="" transform="translate(244.592 397.601) scale(0.022 -0.022)"/><path d="M264 62Q284 62 305 65.5Q326 69 339 73L339 6Q325 -1 299 -5.5Q273 -10 249 -10Q207 -10 171.5 4.5Q136 19 114 55Q92 91 92 156L92 468L16 468L16 510L93 545L128 659L180 659L180 536L335 536L335 468L180 468L180 158Q180 109 203.5 85.5Q227 62 264 62Z" transform="translate(250.312 397.601) scale(0.022 -0.022)"/><path d="M173 537Q173 497 168 462L174 462Q200 503 244.5 524Q289 545 341 545Q439 545 488 498.5Q537 452 537 349L537 0L450 0L450 343Q450 472 330 472Q240 472 206.5 421.5Q173 371 173 277L173 0L85 0L85 760L173 760Z" transform="translate(258.254 397.601) scale(0.022 -0.022)"/><path d="M292 546Q361 546 410.5 516Q460 486 486.5 431.5Q513 377 513 304L513 251L146 251Q148 160 192.5 112.5Q237 65 317 65Q368 65 407.5 74.5Q447 84 489 102L489 25Q448 7 408 -1.5Q368 -10 313 -10Q237 -10 178.5 21Q120 52 87.5 113.5Q55 175 55 264Q55 352 84.5 415Q114 478 167.5 512Q221 546 292 546ZM291 474Q228 474 191.5 433.5Q155 393 148 321L421 321Q420 389 389 431.5Q358 474 291 474Z" transform="translate(271.85 397.601) scale(0.022 -0.022)"/><path d="" transform="translate(284.258 397.601) scale(0.022 -0.022)"/><path d="M673 546Q764 546 809 499.5Q854 453 854 349L854 0L767 0L767 345Q767 472 658 472Q580 472 546.5 427Q513 382 513 296L513 0L426 0L426 345Q426 472 316 472Q235 472 204 422Q173 372 173 278L173 0L85 0L85 536L156 536L169 463L174 463Q199 505 241.5 525.5Q284 546 332 546Q458 546 496 456L501 456Q528 502 574.5 524Q621 546 673 546Z" transform="translate(289.978 397.601) scale(0.022 -0.022)"/><path d="M551 269Q551 136 483.5 63Q416 -10 301 -10Q230 -10 174.5 22.5Q119 55 87 117.5Q55 180 55 269Q55 402 122 474Q189 546 304 546Q377 546 432.5 513.5Q488 481 519.5 419.5Q551 358 551 269ZM146 269Q146 174 183.5 118.5Q221 63 303 63Q384 63 422 118.5Q460 174 460 269Q460 364 422 418Q384 472 302 472Q220 472 183 418Q146 364 146 269Z" transform="translate(310.548 397.601) scale(0.022 -0.022)"/><path d="M343 546Q439 546 488 499.5Q537 453 537 349L537 0L450 0L450 343Q450 472 330 472Q241 472 207 422Q173 372 173 278L173 0L85 0L85 536L156 536L169 463L174 463Q200 505 246 525.5Q292 546 343 546Z" transform="translate(323.858 397.601) scale(0.022 -0.022)"/><path d="M264 62Q284 62 305 65.5Q326 69 339 73L339 6Q325 -1 299 -5.5Q273 -10 249 -10Q207 -10 171.5 4.5Q136 19 114 55Q92 91 92 156L92 468L16 468L16 510L93 545L128 659L180 659L180 536L335 536L335 468L180 468L180 158Q180 109 203.5 85.5Q227 62 264 62Z" transform="translate(337.454 397.601) scale(0.022 -0.022)"/><path d="M173 537Q173 497 168 462L174 462Q200 503 244.5 524Q289 545 341 545Q439 545 488 498.5Q537 452 537 349L537 0L450 0L450 343Q450 472 330 472Q240 472 206.5 421.5Q173 371 173 277L173 0L85 0L85 760L173 760Z" transform="translate(345.396 397.601) scale(0.022 -0.022)"/><path d="" transform="translate(358.992 397.601) scale(0.022 -0.022)"/><path d="M173 575Q173 541 171.5 511.5Q170 482 168 465L173 465Q196 499 236 522Q276 545 339 545Q439 545 499.5 475.5Q560 406 560 268Q560 130 499 60Q438 -10 339 -10Q276 -10 236 13Q196 36 173 68L166 68L148 0L85 0L85 760L173 760ZM324 472Q239 472 206 423Q173 374 173 271L173 267Q173 168 205.5 115.5Q238 63 326 63Q398 63 433.5 116Q469 169 469 269Q469 472 324 472Z" transform="translate(364.712 397.601) scale(0.022 -0.022)"/><path d="M292 546Q361 546 410.5 516Q460 486 486.5 431.5Q513 377 513 304L513 251L146 251Q148 160 192.5 112.5Q237 65 317 65Q368 65 407.5 74.5Q447 84 489 102L489 25Q448 7 408 -1.5Q368 -10 313 -10Q237 -10 178.5 21Q120 52 87.5 113.5Q55 175 55 264Q55 352 84.5 415Q114 478 167.5 512Q221 546 292 546ZM291 474Q228 474 191.5 433.5Q155 393 148 321L421 321Q420 389 389 431.5Q358 474 291 474Z" transform="translate(378.242 397.601) scale(0.022 -0.022)"/><path d="M332 468L197 468L197 0L109 0L109 468L15 468L15 509L109 539L109 570Q109 674 155 719.5Q201 765 283 765Q315 765 341.5 759.5Q368 754 387 747L364 678Q348 683 327 688Q306 693 284 693Q240 693 218.5 663.5Q197 634 197 571L197 536L332 536Z" transform="translate(390.65 397.601) scale(0.022 -0.022)"/><path d="M551 269Q551 136 483.5 63Q416 -10 301 -10Q230 -10 174.5 22.5Q119 55 87 117.5Q55 180 55 269Q55 402 122 474Q189 546 304 546Q377 546 432.5 513.5Q488 481 519.5 419.5Q551 358 551 269ZM146 269Q146 174 183.5 118.5Q221 63 303 63Q384 63 422 118.5Q460 174 460 269Q460 364 422 418Q384 472 302 472Q220 472 183 418Q146 364 146 269Z" transform="translate(398.218 397.601) scale(0.022 -0.022)"/><path d="M335 546Q350 546 367.5 544.5Q385 543 398 540L387 459Q374 462 358.5 464Q343 466 329 466Q288 466 252 443.5Q216 421 194.5 380.5Q173 340 173 286L173 0L85 0L85 536L157 536L167 438L171 438Q197 482 238 514Q279 546 335 546Z" transform="translate(411.528 397.601) scale(0.022 -0.022)"/><path d="M292 546Q361 546 410.5 516Q460 486 486.5 431.5Q513 377 513 304L513 251L146 251Q148 160 192.5 112.5Q237 65 317 65Q368 65 407.5 74.5Q447 84 489 102L489 25Q448 7 408 -1.5Q368 -10 313 -10Q237 -10 178.5 21Q120 52 87.5 113.5Q55 175 55 264Q55 352 84.5 415Q114 478 167.5 512Q221 546 292 546ZM291 474Q228 474 191.5 433.5Q155 393 148 321L421 321Q420 389 389 431.5Q358 474 291 474Z" transform="translate(420.174 397.601) scale(0.022 -0.022)"/><path d="" transform="translate(432.582 397.601) scale(0.022 -0.022)"/><path d="M130 737Q150 737 165.5 723.5Q181 710 181 681Q181 653 165.5 639Q150 625 130 625Q108 625 93 639Q78 653 78 681Q78 710 93 723.5Q108 737 130 737ZM173 536L173 0L85 0L85 536Z" transform="translate(438.302 397.601) scale(0.022 -0.022)"/><path d="M264 62Q284 62 305 65.5Q326 69 339 73L339 6Q325 -1 299 -5.5Q273 -10 249 -10Q207 -10 171.5 4.5Q136 19 114 55Q92 91 92 156L92 468L16 468L16 510L93 545L128 659L180 659L180 536L335 536L335 468L180 468L180 158Q180 109 203.5 85.5Q227 62 264 62Z" transform="translate(443.978 397.601) scale(0.022 -0.022)"/><path d="" transform="translate(451.92 397.601) scale(0.022 -0.022)"/><path d="M292 546Q361 546 410.5 516Q460 486 486.5 431.5Q513 377 513 304L513 251L146 251Q148 160 192.5 112.5Q237 65 317 65Q368 65 407.5 74.5Q447 84 489 102L489 25Q448 7 408 -1.5Q368 -10 313 -10Q237 -10 178.5 21Q120 52 87.5 113.5Q55 175 55 264Q55 352 84.5 415Q114 478 167.5 512Q221 546 292 546ZM291 474Q228 474 191.5 433.5Q155 393 148 321L421 321Q420 389 389 431.5Q358 474 291 474Z" transform="translate(457.64 397.601) scale(0.022 -0.022)"/><path d="M343 546Q439 546 488 499.5Q537 453 537 349L537 0L450 0L450 343Q450 472 330 472Q241 472 207 422Q173 372 173 278L173 0L85 0L85 536L156 536L169 463L174 463Q200 505 246 525.5Q292 546 343 546Z" transform="translate(470.048 397.601) scale(0.022 -0.022)"/><path d="M275 -10Q175 -10 115 59.5Q55 129 55 267Q55 405 115.5 475.5Q176 546 276 546Q338 546 377.5 523Q417 500 442 467L448 467Q447 480 444.5 505.5Q442 531 442 546L442 760L530 760L530 0L459 0L446 72L442 72Q418 38 378 14Q338 -10 275 -10ZM289 63Q374 63 408.5 109.5Q443 156 443 250L443 266Q443 366 410 419.5Q377 473 288 473Q217 473 181.5 416.5Q146 360 146 265Q146 169 181.5 116Q217 63 289 63Z" transform="translate(483.644 397.601) scale(0.022 -0.022)"/><path d="M434 148Q434 70 376 30Q318 -10 220 -10Q164 -10 123.5 -1Q83 8 52 24L52 104Q84 88 129.5 74.5Q175 61 222 61Q289 61 319 82.5Q349 104 349 140Q349 160 338 176Q327 192 298.5 208Q270 224 217 244Q165 264 128 284Q91 304 71 332Q51 360 51 404Q51 472 106.5 509Q162 546 252 546Q301 546 343.5 536.5Q386 527 423 510L393 440Q359 454 322 464Q285 474 246 474Q192 474 163.5 456.5Q135 439 135 409Q135 387 148 371.5Q161 356 191.5 341.5Q222 327 273 307Q324 288 360 268Q396 248 415 219.5Q434 191 434 148Z" transform="translate(497.174 397.601) scale(0.022 -0.022)"/><path d="M72 54Q72 91 90 106Q108 121 133 121Q159 121 177.5 106Q196 91 196 54Q196 18 177.5 2Q159 -14 133 -14Q108 -14 90 2Q72 18 72 54Z" transform="translate(507.712 397.601) scale(0.022 -0.022)"/></g><circle cx="706.728" cy="189.05833333" r="3.78" fill="#000000"/><g fill="#000000" role="img" aria-label="Close books 3× faster" data-text="Close books 3× faster" data-box="722.728,181.69583333,190.418,14.725"><title>Close books 3× faster</title><path d="M403 645Q288 645 222 568Q156 491 156 357Q156 224 217.5 146.5Q279 69 402 69Q449 69 491 77Q533 85 573 97L573 19Q533 4 490.5 -3Q448 -10 389 -10Q280 -10 207 35Q134 80 97.5 163Q61 246 61 358Q61 466 100.5 548.5Q140 631 217 677.5Q294 724 404 724Q517 724 601 682L565 606Q532 621 491.5 633Q451 645 403 645Z" transform="translate(722.728 196.23083333) scale(0.019 -0.019)"/><path d="M173 0L85 0L85 760L173 760Z" transform="translate(734.736 196.23083333) scale(0.019 -0.019)"/><path d="M551 269Q551 136 483.5 63Q416 -10 301 -10Q230 -10 174.5 22.5Q119 55 87 117.5Q55 180 55 269Q55 402 122 474Q189 546 304 546Q377 546 432.5 513.5Q488 481 519.5 419.5Q551 358 551 269ZM146 269Q146 174 183.5 118.5Q221 63 303 63Q384 63 422 118.5Q460 174 460 269Q460 364 422 418Q384 472 302 472Q220 472 183 418Q146 364 146 269Z" transform="translate(739.638 196.23083333) scale(0.019 -0.019)"/><path d="M434 148Q434 70 376 30Q318 -10 220 -10Q164 -10 123.5 -1Q83 8 52 24L52 104Q84 88 129.5 74.5Q175 61 222 61Q289 61 319 82.5Q349 104 349 140Q349 160 338 176Q327 192 298.5 208Q270 224 217 244Q165 264 128 284Q91 304 71 332Q51 360 51 404Q51 472 106.5 509Q162 546 252 546Q301 546 343.5 536.5Q386 527 423 510L393 440Q359 454 322 464Q285 474 246 474Q192 474 163.5 456.5Q135 439 135 409Q135 387 148 371.5Q161 356 191.5 341.5Q222 327 273 307Q324 288 360 268Q396 248 415 219.5Q434 191 434 148Z" transform="translate(751.133 196.23083333) scale(0.019 -0.019)"/><path d="M292 546Q361 546 410.5 516Q460 486 486.5 431.5Q513 377 513 304L513 251L146 251Q148 160 192.5 112.5Q237 65 317 65Q368 65 407.5 74.5Q447 84 489 102L489 25Q448 7 408 -1.5Q368 -10 313 -10Q237 -10 178.5 21Q120 52 87.5 113.5Q55 175 55 264Q55 352 84.5 415Q114 478 167.5 512Q221 546 292 546ZM291 474Q228 474 191.5 433.5Q155 393 148 321L421 321Q420 389 389 431.5Q358 474 291 474Z" transform="translate(760.234 196.23083333) scale(0.019 -0.019)"/><path d="" transform="translate(770.95 196.23083333) scale(0.019 -0.019)"/><path d="M173 575Q173 541 171.5 511.5Q170 482 168 465L173 465Q196 499 236 522Q276 545 339 545Q439 545 499.5 475.5Q560 406 560 268Q560 130 499 60Q438 -10 339 -10Q276 -10 236 13Q196 36 173 68L166 68L148 0L85 0L85 760L173 760ZM324 472Q239 472 206 423Q173 374 173 271L173 267Q173 168 205.5 115.5Q238 63 326 63Q398 63 433.5 116Q469 169 469 269Q469 472 324 472Z" transform="translate(775.89 196.23083333) scale(0.019 -0.019)"/><path d="M551 269Q551 136 483.5 63Q416 -10 301 -10Q230 -10 174.5 22.5Q119 55 87 117.5Q55 180 55 269Q55 402 122 474Q189 546 304 546Q377 546 432.5 513.5Q488 481 519.5 419.5Q551 358 551 269ZM146 269Q146 174 183.5 118.5Q221 63 303 63Q384 63 422 118.5Q460 174 460 269Q460 364 422 418Q384 472 302 472Q220 472 183 418Q146 364 146 269Z" transform="translate(787.575 196.23083333) scale(0.019 -0.019)"/><path d="M551 269Q551 136 483.5 63Q416 -10 301 -10Q230 -10 174.5 22.5Q119 55 87 117.5Q55 180 55 269Q55 402 122 474Q189 546 304 546Q377 546 432.5 513.5Q488 481 519.5 419.5Q551 358 551 269ZM146 269Q146 174 183.5 118.5Q221 63 303 63Q384 63 422 118.5Q460 174 460 269Q460 364 422 418Q384 472 302 472Q220 472 183 418Q146 364 146 269Z" transform="translate(799.07 196.23083333) scale(0.019 -0.019)"/><path d="M172 363Q172 347 170.5 321Q169 295 168 276L172 276Q178 284 190 299Q202 314 214.5 329.5Q227 345 236 355L407 536L510 536L293 307L525 0L419 0L233 250L172 197L172 0L85 0L85 760L172 760Z" transform="translate(810.565 196.23083333) scale(0.019 -0.019)"/><path d="M434 148Q434 70 376 30Q318 -10 220 -10Q164 -10 123.5 -1Q83 8 52 24L52 104Q84 88 129.5 74.5Q175 61 222 61Q289 61 319 82.5Q349 104 349 140Q349 160 338 176Q327 192 298.5 208Q270 224 217 244Q165 264 128 284Q91 304 71 332Q51 360 51 404Q51 472 106.5 509Q162 546 252 546Q301 546 343.5 536.5Q386 527 423 510L393 440Q359 454 322 464Q285 474 246 474Q192 474 163.5 456.5Q135 439 135 409Q135 387 148 371.5Q161 356 191.5 341.5Q222 327 273 307Q324 288 360 268Q396 248 415 219.5Q434 191 434 148Z" transform="translate(820.711 196.23083333) scale(0.019 -0.019)"/><path d="" transform="translate(829.812 196.23083333) scale(0.019 -0.019)"/><path d="M493 547Q493 475 453 432.5Q413 390 345 376L345 372Q431 362 473 318Q515 274 515 203Q515 141 486 92.5Q457 44 396.5 17Q336 -10 241 -10Q185 -10 137 -1.5Q89 7 45 29L45 111Q90 89 142 76.5Q194 64 242 64Q338 64 380.5 101.5Q423 139 423 205Q423 272 370.5 301.5Q318 331 223 331L154 331L154 406L224 406Q312 406 357.5 443Q403 480 403 541Q403 593 368 621.5Q333 650 273 650Q215 650 174 633Q133 616 93 590L49 650Q87 680 143.5 702Q200 724 272 724Q384 724 438.5 674Q493 624 493 547Z" transform="translate(834.752 196.23083333) scale(0.019 -0.019)"/><path d="M456 574L506 523L336 353L505 183L455 132L284 301L117 132L65 183L234 353L64 522L116 574L285 403Z" transform="translate(845.62 196.23083333) scale(0.019 -0.019)"/><path d="" transform="translate(856.488 196.23083333) scale(0.019 -0.019)"/><path d="M332 468L197 468L197 0L109 0L109 468L15 468L15 509L109 539L109 570Q109 674 155 719.5Q201 765 283 765Q315 765 341.5 759.5Q368 754 387 747L364 678Q348 683 327 688Q306 693 284 693Q240 693 218.5 663.5Q197 634 197 571L197 536L332 536Z" transform="translate(861.428 196.23083333) scale(0.019 -0.019)"/><path d="M288 545Q386 545 433 502Q480 459 480 365L480 0L416 0L399 76L395 76Q360 32 321.5 11Q283 -10 215 -10Q142 -10 94 28.5Q46 67 46 149Q46 229 109 272.5Q172 316 303 320L394 323L394 355Q394 422 365 448Q336 474 283 474Q241 474 203 461.5Q165 449 132 433L105 499Q140 518 188 531.5Q236 545 288 545ZM314 259Q214 255 175.5 227Q137 199 137 148Q137 103 164.5 82Q192 61 235 61Q303 61 348 98.5Q393 136 393 214L393 262Z" transform="translate(867.964 196.23083333) scale(0.019 -0.019)"/><path d="M434 148Q434 70 376 30Q318 -10 220 -10Q164 -10 123.5 -1Q83 8 52 24L52 104Q84 88 129.5 74.5Q175 61 222 61Q289 61 319 82.5Q349 104 349 140Q349 160 338 176Q327 192 298.5 208Q270 224 217 244Q165 264 128 284Q91 304 71 332Q51 360 51 404Q51 472 106.5 509Q162 546 252 546Q301 546 343.5 536.5Q386 527 423 510L393 440Q359 454 322 464Q285 474 246 474Q192 474 163.5 456.5Q135 439 135 409Q135 387 148 371.5Q161 356 191.5 341.5Q222 327 273 307Q324 288 360 268Q396 248 415 219.5Q434 191 434 148Z" transform="translate(878.623 196.23083333) scale(0.019 -0.019)"/><path d="M264 62Q284 62 305 65.5Q326 69 339 73L339 6Q325 -1 299 -5.5Q273 -10 249 -10Q207 -10 171.5 4.5Q136 19 114 55Q92 91 92 156L92 468L16 468L16 510L93 545L128 659L180 659L180 536L335 536L335 468L180 468L180 158Q180 109 203.5 85.5Q227 62 264 62Z" transform="translate(887.724 196.23083333) scale(0.019 -0.019)"/><path d="M292 546Q361 546 410.5 516Q460 486 486.5 431.5Q513 377 513 304L513 251L146 251Q148 160 192.5 112.5Q237 65 317 65Q368 65 407.5 74.5Q447 84 489 102L489 25Q448 7 408 -1.5Q368 -10 313 -10Q237 -10 178.5 21Q120 52 87.5 113.5Q55 175 55 264Q55 352 84.5 415Q114 478 167.5 512Q221 546 292 546ZM291 474Q228 474 191.5 433.5Q155 393 148 321L421 321Q420 389 389 431.5Q358 474 291 474Z" transform="translate(894.583 196.23083333) scale(0.019 -0.019)"/><path d="M335 546Q350 546 367.5 544.5Q385 543 398 540L387 459Q374 462 358.5 464Q343 466 329 466Q288 466 252 443.5Q216 421 194.5 380.5Q173 340 173 286L173 0L85 0L85 536L157 536L167 438L171 438Q197 482 238 514Q279 546 335 546Z" transform="translate(905.299 196.23083333) scale(0.019 -0.019)"/></g><circle cx="706.728" cy="339.775" r="3.78" fill="#000000"/><g fill="#000000" role="img" aria-label="Audit-ready exports" data-text="Audit-ready exports" data-box="722.728,330.275,175.978,19"><title>Audit-ready exports</title><path d="M545 0L459 221L176 221L91 0L0 0L279 717L360 717L638 0ZM352 517Q349 525 342 546Q335 567 328.5 589.5Q322 612 318 624Q311 593 302 563.5Q293 534 287 517L206 301L432 301Z" transform="translate(722.728 344.715) scale(0.019 -0.019)"/><path d="M533 536L533 0L461 0L448 71L444 71Q418 29 372 9.5Q326 -10 274 -10Q177 -10 128 36.5Q79 83 79 185L79 536L168 536L168 191Q168 63 287 63Q376 63 410.5 113Q445 163 445 257L445 536Z" transform="translate(734.869 344.715) scale(0.019 -0.019)"/><path d="M275 -10Q175 -10 115 59.5Q55 129 55 267Q55 405 115.5 475.5Q176 546 276 546Q338 546 377.5 523Q417 500 442 467L448 467Q447 480 444.5 505.5Q442 531 442 546L442 760L530 760L530 0L459 0L446 72L442 72Q418 38 378 14Q338 -10 275 -10ZM289 63Q374 63 408.5 109.5Q443 156 443 250L443 266Q443 366 410 419.5Q377 473 288 473Q217 473 181.5 416.5Q146 360 146 265Q146 169 181.5 116Q217 63 289 63Z" transform="translate(746.611 344.715) scale(0.019 -0.019)"/><path d="M130 737Q150 737 165.5 723.5Q181 710 181 681Q181 653 165.5 639Q150 625 130 625Q108 625 93 639Q78 653 78 681Q78 710 93 723.5Q108 737 130 737ZM173 536L173 0L85 0L85 536Z" transform="translate(758.296 344.715) scale(0.019 -0.019)"/><path d="M264 62Q284 62 305 65.5Q326 69 339 73L339 6Q325 -1 299 -5.5Q273 -10 249 -10Q207 -10 171.5 4.5Q136 19 114 55Q92 91 92 156L92 468L16 468L16 510L93 545L128 659L180 659L180 536L335 536L335 468L180 468L180 158Q180 109 203.5 85.5Q227 62 264 62Z" transform="translate(763.198 344.715) scale(0.019 -0.019)"/><path d="M40 229L40 307L282 307L282 229Z" transform="translate(770.057 344.715) scale(0.019 -0.019)"/><path d="M335 546Q350 546 367.5 544.5Q385 543 398 540L387 459Q374 462 358.5 464Q343 466 329 466Q288 466 252 443.5Q216 421 194.5 380.5Q173 340 173 286L173 0L85 0L85 536L157 536L167 438L171 438Q197 482 238 514Q279 546 335 546Z" transform="translate(776.175 344.715) scale(0.019 -0.019)"/><path d="M292 546Q361 546 410.5 516Q460 486 486.5 431.5Q513 377 513 304L513 251L146 251Q148 160 192.5 112.5Q237 65 317 65Q368 65 407.5 74.5Q447 84 489 102L489 25Q448 7 408 -1.5Q368 -10 313 -10Q237 -10 178.5 21Q120 52 87.5 113.5Q55 175 55 264Q55 352 84.5 415Q114 478 167.5 512Q221 546 292 546ZM291 474Q228 474 191.5 433.5Q155 393 148 321L421 321Q420 389 389 431.5Q358 474 291 474Z" transform="translate(783.642 344.715) scale(0.019 -0.019)"/><path d="M288 545Q386 545 433 502Q480 459 480 365L480 0L416 0L399 76L395 76Q360 32 321.5 11Q283 -10 215 -10Q142 -10 94 28.5Q46 67 46 149Q46 229 109 272.5Q172 316 303 320L394 323L394 355Q394 422 365 448Q336 474 283 474Q241 474 203 461.5Q165 449 132 433L105 499Q140 518 188 531.5Q236 545 288 545ZM314 259Q214 255 175.5 227Q137 199 137 148Q137 103 164.5 82Q192 61 235 61Q303 61 348 98.5Q393 136 393 214L393 262Z" transform="translate(794.358 344.715) scale(0.019 -0.019)"/><path d="M275 -10Q175 -10 115 59.5Q55 129 55 267Q55 405 115.5 475.5Q176 546 276 546Q338 546 377.5 523Q417 500 442 467L448 467Q447 480 444.5 505.5Q442 531 442 546L442 760L530 760L530 0L459 0L446 72L442 72Q418 38 378 14Q338 -10 275 -10ZM289 63Q374 63 408.5 109.5Q443 156 443 250L443 266Q443 366 410 419.5Q377 473 288 473Q217 473 181.5 416.5Q146 360 146 265Q146 169 181.5 116Q217 63 289 63Z" transform="translate(805.017 344.715) scale(0.019 -0.019)"/><path d="M1 536L95 536L211 231Q226 191 238 154.5Q250 118 256 85L260 85Q266 110 279 150.5Q292 191 306 232L415 536L510 536L279 -74Q251 -150 206.5 -195Q162 -240 84 -240Q60 -240 42 -237.5Q24 -235 11 -232L11 -162Q22 -164 37.5 -166Q53 -168 70 -168Q116 -168 144.5 -142Q173 -116 189 -73L217 -2Z" transform="translate(816.702 344.715) scale(0.019 -0.019)"/><path d="" transform="translate(826.392 344.715) scale(0.019 -0.019)"/><path d="M292 546Q361 546 410.5 516Q460 486 486.5 431.5Q513 377 513 304L513 251L146 251Q148 160 192.5 112.5Q237 65 317 65Q368 65 407.5 74.5Q447 84 489 102L489 25Q448 7 408 -1.5Q368 -10 313 -10Q237 -10 178.5 21Q120 52 87.5 113.5Q55 175 55 264Q55 352 84.5 415Q114 478 167.5 512Q221 546 292 546ZM291 474Q228 474 191.5 433.5Q155 393 148 321L421 321Q420 389 389 431.5Q358 474 291 474Z" transform="translate(831.332 344.715) scale(0.019 -0.019)"/><path d="M212 274L27 536L127 536L265 334L402 536L501 536L316 274L511 0L411 0L265 214L117 0L18 0Z" transform="translate(841.668 344.715) scale(0.019 -0.019)"/><path d="M340 546Q439 546 499.5 477Q560 408 560 269Q560 132 499.5 61Q439 -10 339 -10Q277 -10 236.5 13.5Q196 37 173 68L167 68Q169 51 171 25Q173 -1 173 -20L173 -240L85 -240L85 536L157 536L169 463L173 463Q197 498 236 522Q275 546 340 546ZM324 472Q242 472 208.5 426Q175 380 173 286L173 269Q173 170 205.5 116.5Q238 63 326 63Q375 63 406.5 90Q438 117 453.5 163.5Q469 210 469 270Q469 362 433.5 417Q398 472 324 472Z" transform="translate(851.719 344.715) scale(0.019 -0.019)"/><path d="M551 269Q551 136 483.5 63Q416 -10 301 -10Q230 -10 174.5 22.5Q119 55 87 117.5Q55 180 55 269Q55 402 122 474Q189 546 304 546Q377 546 432.5 513.5Q488 481 519.5 419.5Q551 358 551 269ZM146 269Q146 174 183.5 118.5Q221 63 303 63Q384 63 422 118.5Q460 174 460 269Q460 364 422 418Q384 472 302 472Q220 472 183 418Q146 364 146 269Z" transform="translate(863.404 344.715) scale(0.019 -0.019)"/><path d="M335 546Q350 546 367.5 544.5Q385 543 398 540L387 459Q374 462 358.5 464Q343 466 329 466Q288 466 252 443.5Q216 421 194.5 380.5Q173 340 173 286L173 0L85 0L85 536L157 536L167 438L171 438Q197 482 238 514Q279 546 335 546Z" transform="translate(874.899 344.715) scale(0.019 -0.019)"/><path d="M264 62Q284 62 305 65.5Q326 69 339 73L339 6Q325 -1 299 -5.5Q273 -10 249 -10Q207 -10 171.5 4.5Q136 19 114 55Q92 91 92 156L92 468L16 468L16 510L93 545L128 659L180 659L180 536L335 536L335 468L180 468L180 158Q180 109 203.5 85.5Q227 62 264 62Z" transform="translate(882.746 344.715) scale(0.019 -0.019)"/><path d="M434 148Q434 70 376 30Q318 -10 220 -10Q164 -10 123.5 -1Q83 8 52 24L52 104Q84 88 129.5 74.5Q175 61 222 61Q289 61 319 82.5Q349 104 349 140Q349 160 338 176Q327 192 298.5 208Q270 224 217 244Q165 264 128 284Q91 304 71 332Q51 360 51 404Q51 472 106.5 509Q162 546 252 546Q301 546 343.5 536.5Q386 527 423 510L393 440Q359 454 322 464Q285 474 246 474Q192 474 163.5 456.5Q135 439 135 409Q135 387 148 371.5Q161 356 191.5 341.5Q222 327 273 307Q324 288 360 268Q396 248 415 219.5Q434 191 434 148Z" transform="translate(889.605 344.715) scale(0.019 -0.019)"/></g><circle cx="706.728" cy="490.49166667" r="3.78" fill="#000000"/><g fill="#000000" role="img" aria-label="No per-seat surprise" data-text="No per-seat surprise" data-box="722.728,481.21016667,182.457,18.563"><title>No per-seat surprise</title><path d="M663 0L558 0L176 593L172 593Q174 558 177 506Q180 454 180 399L180 0L97 0L97 714L201 714L582 123L586 123Q585 139 583.5 171Q582 203 580.5 241Q579 279 579 311L579 714L663 714Z" transform="translate(722.728 495.21316667) scale(0.019 -0.019)"/><path d="M551 269Q551 136 483.5 63Q416 -10 301 -10Q230 -10 174.5 22.5Q119 55 87 117.5Q55 180 55 269Q55 402 122 474Q189 546 304 546Q377 546 432.5 513.5Q488 481 519.5 419.5Q551 358 551 269ZM146 269Q146 174 183.5 118.5Q221 63 303 63Q384 63 422 118.5Q460 174 460 269Q460 364 422 418Q384 472 302 472Q220 472 183 418Q146 364 146 269Z" transform="translate(737.168 495.21316667) scale(0.019 -0.019)"/><path d="" transform="translate(748.663 495.21316667) scale(0.019 -0.019)"/><path d="M340 546Q439 546 499.5 477Q560 408 560 269Q560 132 499.5 61Q439 -10 339 -10Q277 -10 236.5 13.5Q196 37 173 68L167 68Q169 51 171 25Q173 -1 173 -20L173 -240L85 -240L85 536L157 536L169 463L173 463Q197 498 236 522Q275 546 340 546ZM324 472Q242 472 208.5 426Q175 380 173 286L173 269Q173 170 205.5 116.5Q238 63 326 63Q375 63 406.5 90Q438 117 453.5 163.5Q469 210 469 270Q469 362 433.5 417Q398 472 324 472Z" transform="translate(753.603 495.21316667) scale(0.019 -0.019)"/><path d="M292 546Q361 546 410.5 516Q460 486 486.5 431.5Q513 377 513 304L513 251L146 251Q148 160 192.5 112.5Q237 65 317 65Q368 65 407.5 74.5Q447 84 489 102L489 25Q448 7 408 -1.5Q368 -10 313 -10Q237 -10 178.5 21Q120 52 87.5 113.5Q55 175 55 264Q55 352 84.5 415Q114 478 167.5 512Q221 546 292 546ZM291 474Q228 474 191.5 433.5Q155 393 148 321L421 321Q420 389 389 431.5Q358 474 291 474Z" transform="translate(765.288 495.21316667) scale(0.019 -0.019)"/><path d="M335 546Q350 546 367.5 544.5Q385 543 398 540L387 459Q374 462 358.5 464Q343 466 329 466Q288 466 252 443.5Q216 421 194.5 380.5Q173 340 173 286L173 0L85 0L85 536L157 536L167 438L171 438Q197 482 238 514Q279 546 335 546Z" transform="translate(776.004 495.21316667) scale(0.019 -0.019)"/><path d="M40 229L40 307L282 307L282 229Z" transform="translate(783.851 495.21316667) scale(0.019 -0.019)"/><path d="M434 148Q434 70 376 30Q318 -10 220 -10Q164 -10 123.5 -1Q83 8 52 24L52 104Q84 88 129.5 74.5Q175 61 222 61Q289 61 319 82.5Q349 104 349 140Q349 160 338 176Q327 192 298.5 208Q270 224 217 244Q165 264 128 284Q91 304 71 332Q51 360 51 404Q51 472 106.5 509Q162 546 252 546Q301 546 343.5 536.5Q386 527 423 510L393 440Q359 454 322 464Q285 474 246 474Q192 474 163.5 456.5Q135 439 135 409Q135 387 148 371.5Q161 356 191.5 341.5Q222 327 273 307Q324 288 360 268Q396 248 415 219.5Q434 191 434 148Z" transform="translate(789.969 495.21316667) scale(0.019 -0.019)"/><path d="M292 546Q361 546 410.5 516Q460 486 486.5 431.5Q513 377 513 304L513 251L146 251Q148 160 192.5 112.5Q237 65 317 65Q368 65 407.5 74.5Q447 84 489 102L489 25Q448 7 408 -1.5Q368 -10 313 -10Q237 -10 178.5 21Q120 52 87.5 113.5Q55 175 55 264Q55 352 84.5 415Q114 478 167.5 512Q221 546 292 546ZM291 474Q228 474 191.5 433.5Q155 393 148 321L421 321Q420 389 389 431.5Q358 474 291 474Z" transform="translate(799.07 495.21316667) scale(0.019 -0.019)"/><path d="M288 545Q386 545 433 502Q480 459 480 365L480 0L416 0L399 76L395 76Q360 32 321.5 11Q283 -10 215 -10Q142 -10 94 28.5Q46 67 46 149Q46 229 109 272.5Q172 316 303 320L394 323L394 355Q394 422 365 448Q336 474 283 474Q241 474 203 461.5Q165 449 132 433L105 499Q140 518 188 531.5Q236 545 288 545ZM314 259Q214 255 175.5 227Q137 199 137 148Q137 103 164.5 82Q192 61 235 61Q303 61 348 98.5Q393 136 393 214L393 262Z" transform="translate(809.786 495.21316667) scale(0.019 -0.019)"/><path d="M264 62Q284 62 305 65.5Q326 69 339 73L339 6Q325 -1 299 -5.5Q273 -10 249 -10Q207 -10 171.5 4.5Q136 19 114 55Q92 91 92 156L92 468L16 468L16 510L93 545L128 659L180 659L180 536L335 536L335 468L180 468L180 158Q180 109 203.5 85.5Q227 62 264 62Z" transform="translate(820.445 495.21316667) scale(0.019 -0.019)"/><path d="" transform="translate(827.304 495.21316667) scale(0.019 -0.019)"/><path d="M434 148Q434 70 376 30Q318 -10 220 -10Q164 -10 123.5 -1Q83 8 52 24L52 104Q84 88 129.5 74.5Q175 61 222 61Q289 61 319 82.5Q349 104 349 140Q349 160 338 176Q327 192 298.5 208Q270 224 217 244Q165 264 128 284Q91 304 71 332Q51 360 51 404Q51 472 106.5 509Q162 546 252 546Q301 546 343.5 536.5Q386 527 423 510L393 440Q359 454 322 464Q285 474 246 474Q192 474 163.5 456.5Q135 439 135 409Q135 387 148 371.5Q161 356 191.5 341.5Q222 327 273 307Q324 288 360 268Q396 248 415 219.5Q434 191 434 148Z" transform="translate(832.244 495.21316667) scale(0.019 -0.019)"/><path d="M533 536L533 0L461 0L448 71L444 71Q418 29 372 9.5Q326 -10 274 -10Q177 -10 128 36.5Q79 83 79 185L79 536L168 536L168 191Q168 63 287 63Q376 63 410.5 113Q445 163 445 257L445 536Z" transform="translate(841.345 495.21316667) scale(0.019 -0.019)"/><path d="M335 546Q350 546 367.5 544.5Q385 543 398 540L387 459Q374 462 358.5 464Q343 466 329 466Q288 466 252 443.5Q216 421 194.5 380.5Q173 340 173 286L173 0L85 0L85 536L157 536L167 438L171 438Q197 482 238 514Q279 546 335 546Z" transform="translate(853.087 495.21316667) scale(0.019 -0.019)"/><path d="M340 546Q439 546 499.5 477Q560 408 560 269Q560 132 499.5 61Q439 -10 339 -10Q277 -10 236.5 13.5Q196 37 173 68L167 68Q169 51 171 25Q173 -1 173 -20L173 -240L85 -240L85 536L157 536L169 463L173 463Q197 498 236 522Q275 546 340 546ZM324 472Q242 472 208.5 426Q175 380 173 286L173 269Q173 170 205.5 116.5Q238 63 326 63Q375 63 406.5 90Q438 117 453.5 163.5Q469 210 469 270Q469 362 433.5 417Q398 472 324 472Z" transform="translate(860.934 495.21316667) scale(0.019 -0.019)"/><path d="M335 546Q350 546 367.5 544.5Q385 543 398 540L387 459Q374 462 358.5 464Q343 466 329 466Q288 466 252 443.5Q216 421 194.5 380.5Q173 340 173 286L173 0L85 0L85 536L157 536L167 438L171 438Q197 482 238 514Q279 546 335 546Z" transform="translate(872.619 495.21316667) scale(0.019 -0.019)"/><path d="M130 737Q150 737 165.5 723.5Q181 710 181 681Q181 653 165.5 639Q150 625 130 625Q108 625 93 639Q78 653 78 681Q78 710 93 723.5Q108 737 130 737ZM173 536L173 0L85 0L85 536Z" transform="translate(880.466 495.21316667) scale(0.019 -0.019)"/><path d="M434 148Q434 70 376 30Q318 -10 220 -10Q164 -10 123.5 -1Q83 8 52 24L52 104Q84 88 129.5 74.5Q175 61 222 61Q289 61 319 82.5Q349 104 349 140Q349 160 338 176Q327 192 298.5 208Q270 224 217 244Q165 264 128 284Q91 304 71 332Q51 360 51 404Q51 472 106.5 509Q162 546 252 546Q301 546 343.5 536.5Q386 527 423 510L393 440Q359 454 322 464Q285 474 246 474Q192 474 163.5 456.5Q135 439 135 409Q135 387 148 371.5Q161 356 191.5 341.5Q222 327 273 307Q324 288 360 268Q396 248 415 219.5Q434 191 434 148Z" transform="translate(885.368 495.21316667) scale(0.019 -0.019)"/><path d="M292 546Q361 546 410.5 516Q460 486 486.5 431.5Q513 377 513 304L513 251L146 251Q148 160 192.5 112.5Q237 65 317 65Q368 65 407.5 74.5Q447 84 489 102L489 25Q448 7 408 -1.5Q368 -10 313 -10Q237 -10 178.5 21Q120 52 87.5 113.5Q55 175 55 264Q55 352 84.5 415Q114 478 167.5 512Q221 546 292 546ZM291 474Q228 474 191.5 433.5Q155 393 148 321L421 321Q420 389 389 431.5Q358 474 291 474Z" transform="translate(894.469 495.21316667) scale(0.019 -0.019)"/></g><ellipse cx="232.95" cy="574.55" rx="201.6" ry="55.1" fill="#818CF8" fill-opacity=".18"/><rect x="52.95" y="531.05" width="360" height="58" rx="29" fill="#818CF8"/><rect x="70.35" y="536.27" width="325.2" height="6.38" rx="3.19" fill="#000000" fill-opacity=".22"/><g fill="#000000" role="img" aria-label="Start free trial" data-text="Start free trial" data-box="161.659,551.525,142.582,17.05"><title>Start free trial</title><path d="M502 191Q502 96 433 43Q364 -10 247 -10Q187 -10 136 -1Q85 8 51 24L51 110Q87 94 140.5 81Q194 68 251 68Q331 68 371.5 99Q412 130 412 183Q412 218 397 242Q382 266 345.5 286.5Q309 307 244 330Q153 363 106.5 411Q60 459 60 542Q60 599 89 639.5Q118 680 169.5 702Q221 724 288 724Q347 724 396 713Q445 702 485 684L457 607Q420 623 376.5 634Q333 645 286 645Q219 645 185 616.5Q151 588 151 541Q151 505 166 481Q181 457 215 438Q249 419 307 397Q370 374 413.5 347.5Q457 321 479.5 284Q502 247 502 191Z" transform="translate(161.659 568.355) scale(0.022 -0.022)"/><path d="M264 62Q284 62 305 65.5Q326 69 339 73L339 6Q325 -1 299 -5.5Q273 -10 249 -10Q207 -10 171.5 4.5Q136 19 114 55Q92 91 92 156L92 468L16 468L16 510L93 545L128 659L180 659L180 536L335 536L335 468L180 468L180 158Q180 109 203.5 85.5Q227 62 264 62Z" transform="translate(173.737 568.355) scale(0.022 -0.022)"/><path d="M288 545Q386 545 433 502Q480 459 480 365L480 0L416 0L399 76L395 76Q360 32 321.5 11Q283 -10 215 -10Q142 -10 94 28.5Q46 67 46 149Q46 229 109 272.5Q172 316 303 320L394 323L394 355Q394 422 365 448Q336 474 283 474Q241 474 203 461.5Q165 449 132 433L105 499Q140 518 188 531.5Q236 545 288 545ZM314 259Q214 255 175.5 227Q137 199 137 148Q137 103 164.5 82Q192 61 235 61Q303 61 348 98.5Q393 136 393 214L393 262Z" transform="translate(181.679 568.355) scale(0.022 -0.022)"/><path d="M335 546Q350 546 367.5 544.5Q385 543 398 540L387 459Q374 462 358.5 464Q343 466 329 466Q288 466 252 443.5Q216 421 194.5 380.5Q173 340 173 286L173 0L85 0L85 536L157 536L167 438L171 438Q197 482 238 514Q279 546 335 546Z" transform="translate(194.021 568.355) scale(0.022 -0.022)"/><path d="M264 62Q284 62 305 65.5Q326 69 339 73L339 6Q325 -1 299 -5.5Q273 -10 249 -10Q207 -10 171.5 4.5Q136 19 114 55Q92 91 92 156L92 468L16 468L16 510L93 545L128 659L180 659L180 536L335 536L335 468L180 468L180 158Q180 109 203.5 85.5Q227 62 264 62Z" transform="translate(203.107 568.355) scale(0.022 -0.022)"/><path d="" transform="translate(211.049 568.355) scale(0.022 -0.022)"/><path d="M332 468L197 468L197 0L109 0L109 468L15 468L15 509L109 539L109 570Q109 674 155 719.5Q201 765 283 765Q315 765 341.5 759.5Q368 754 387 747L364 678Q348 683 327 688Q306 693 284 693Q240 693 218.5 663.5Q197 634 197 571L197 536L332 536Z" transform="translate(216.769 568.355) scale(0.022 -0.022)"/><path d="M335 546Q350 546 367.5 544.5Q385 543 398 540L387 459Q374 462 358.5 464Q343 466 329 466Q288 466 252 443.5Q216 421 194.5 380.5Q173 340 173 286L173 0L85 0L85 536L157 536L167 438L171 438Q197 482 238 514Q279 546 335 546Z" transform="translate(224.337 568.355) scale(0.022 -0.022)"/><path d="M292 546Q361 546 410.5 516Q460 486 486.5 431.5Q513 377 513 304L513 251L146 251Q148 160 192.5 112.5Q237 65 317 65Q368 65 407.5 74.5Q447 84 489 102L489 25Q448 7 408 -1.5Q368 -10 313 -10Q237 -10 178.5 21Q120 52 87.5 113.5Q55 175 55 264Q55 352 84.5 415Q114 478 167.5 512Q221 546 292 546ZM291 474Q228 474 191.5 433.5Q155 393 148 321L421 321Q420 389 389 431.5Q358 474 291 474Z" transform="translate(232.983 568.355) scale(0.022 -0.022)"/><path d="M292 546Q361 546 410.5 516Q460 486 486.5 431.5Q513 377 513 304L513 251L146 251Q148 160 192.5 112.5Q237 65 317 65Q368 65 407.5 74.5Q447 84 489 102L489 25Q448 7 408 -1.5Q368 -10 313 -10Q237 -10 178.5 21Q120 52 87.5 113.5Q55 175 55 264Q55 352 84.5 415Q114 478 167.5 512Q221 546 292 546ZM291 474Q228 474 191.5 433.5Q155 393 148 321L421 321Q420 389 389 431.5Q358 474 291 474Z" transform="translate(245.391 568.355) scale(0.022 -0.022)"/><path d="" transform="translate(257.799 568.355) scale(0.022 -0.022)"/><path d="M264 62Q284 62 305 65.5Q326 69 339 73L339 6Q325 -1 299 -5.5Q273 -10 249 -10Q207 -10 171.5 4.5Q136 19 114 55Q92 91 92 156L92 468L16 468L16 510L93 545L128 659L180 659L180 536L335 536L335 468L180 468L180 158Q180 109 203.5 85.5Q227 62 264 62Z" transform="translate(263.519 568.355) scale(0.022 -0.022)"/><path d="M335 546Q350 546 367.5 544.5Q385 543 398 540L387 459Q374 462 358.5 464Q343 466 329 466Q288 466 252 443.5Q216 421 194.5 380.5Q173 340 173 286L173 0L85 0L85 536L157 536L167 438L171 438Q197 482 238 514Q279 546 335 546Z" transform="translate(271.461 568.355) scale(0.022 -0.022)"/><path d="M130 737Q150 737 165.5 723.5Q181 710 181 681Q181 653 165.5 639Q150 625 130 625Q108 625 93 639Q78 653 78 681Q78 710 93 723.5Q108 737 130 737ZM173 536L173 0L85 0L85 536Z" transform="translate(280.547 568.355) scale(0.022 -0.022)"/><path d="M288 545Q386 545 433 502Q480 459 480 365L480 0L416 0L399 76L395 76Q360 32 321.5 11Q283 -10 215 -10Q142 -10 94 28.5Q46 67 46 149Q46 229 109 272.5Q172 316 303 320L394 323L394 355Q394 422 365 448Q336 474 283 474Q241 474 203 461.5Q165 449 132 433L105 499Q140 518 188 531.5Q236 545 288 545ZM314 259Q214 255 175.5 227Q137 199 137 148Q137 103 164.5 82Q192 61 235 61Q303 61 348 98.5Q393 136 393 214L393 262Z" transform="translate(286.223 568.355) scale(0.022 -0.022)"/><path d="M173 0L85 0L85 760L173 760Z" transform="translate(298.565 568.355) scale(0.022 -0.022)"/></g><rect width="1200" height="630" filter="url(#bfG)" opacity=".45"/></svg>